# xmcd
#
# Track frame offsets: 
#        150
#        18009
#        33407
#        56138
#        75497
#        96876
#        120931
#        143619
#        159283
#        178836
#        202094
#
# Disc length: 3009 seconds
#
# Revision: 0
# Processed by: cddbd v1.5.2PL0 Copyright (c) Steve Scherf et al.
# Submitted via: ExactAudioCopy v0.99pb5
#
DISCID=830bbf0b
DTITLE=Big Daddy Wilson - Love Is The Key
DYEAR=1900
DGENRE=Blues
TTITLE0=Country Boy
TTITLE1=Jazzy Rose
TTITLE2=Anna
TTITLE3=Love Is The Key
TTITLE4=Walk A Mile In My Shoes
TTITLE5=Ain't No Slave
TTITLE6=Keep Your Faith In Jah
TTITLE7=Stranger
TTITLE8=Hard Days Work
TTITLE9=Dreaming
TTITLE10=Waiting On You
EXTD=
EXTT0=
EXTT1=
EXTT2=
EXTT3=
EXTT4=
EXTT5=
EXTT6=
EXTT7=
EXTT8=
EXTT9=
EXTT10=
PLAYORDER=
